<svg width="21" height="20" viewBox="0 0 21 20" fill="none" xmlns="http://www.w3.org/2000/svg">
<path d="M5.66504 1.66675L3.16504 5.00008V16.6667C3.16504 17.1088 3.34063 17.5327 3.65319 17.8453C3.96575 18.1578 4.38968 18.3334 4.83171 18.3334H16.4984C16.9404 18.3334 17.3643 18.1578 17.6769 17.8453C17.9894 17.5327 18.165 17.1088 18.165 16.6667V5.00008L15.665 1.66675H5.66504Z" stroke="white" stroke-width="2" stroke-linecap="round" stroke-linejoin="round"/>
<path d="M3.16504 5H18.165" stroke="white" stroke-width="2" stroke-linecap="round" stroke-linejoin="round"/>
<path d="M13.9982 8.33325C13.9982 9.21731 13.647 10.0652 13.0219 10.6903C12.3968 11.3154 11.5489 11.6666 10.6649 11.6666C9.78082 11.6666 8.93297 11.3154 8.30785 10.6903C7.68273 10.0652 7.33154 9.21731 7.33154 8.33325" stroke="white" stroke-width="2" stroke-linecap="round" stroke-linejoin="round"/>
</svg>
