<svg width="22" height="20" viewBox="0 0 22 20" fill="none" xmlns="http://www.w3.org/2000/svg">
<path d="M21.2098 9.59325L10.0737 16.9257C9.70448 17.1688 9.25385 17.2552 8.82091 17.1661C8.38797 17.0769 8.00818 16.8194 7.7651 16.4502L3.6406 10.1862C3.39752 9.81697 3.01773 9.55947 2.58479 9.4703C2.15185 9.38114 1.70122 9.46761 1.33203 9.71069" stroke="white" stroke-width="1.5" stroke-linecap="round" stroke-linejoin="round"/>
<path d="M15.8973 9.1005L11.3146 2.14042C11.0715 1.77124 10.6917 1.51374 10.2587 1.42457C9.82581 1.33541 9.37518 1.42188 9.00599 1.66496L8.30998 2.12324C7.9408 2.36633 7.6833 2.74611 7.59413 3.17905C7.50497 3.61199 7.59144 4.06262 7.83452 4.43181L12.4173 11.3919" stroke="white" stroke-width="1.5" stroke-linecap="round" stroke-linejoin="round"/>
<path d="M14.3189 2.15766L6.6628 7.19871C6.27841 7.4518 6.17197 7.9686 6.42507 8.35299L9.17474 12.529C9.42784 12.9134 9.94463 13.0199 10.329 12.7668L17.9851 7.72572C18.3695 7.47262 18.4759 6.95583 18.2228 6.57143L15.4732 2.39539C15.2201 2.01099 14.7033 1.90456 14.3189 2.15766Z" stroke="white" stroke-width="1.5" stroke-linecap="round" stroke-linejoin="round"/>
<path d="M20.2583 14.2102C21.0271 13.704 21.24 12.6705 20.7338 11.9017C20.2276 11.1329 19.194 10.92 18.4252 11.4262C17.6564 11.9324 17.4436 12.966 17.9498 13.7348C18.456 14.5036 19.4895 14.7164 20.2583 14.2102Z" stroke="white" stroke-width="1.5" stroke-linecap="round" stroke-linejoin="round"/>
<path d="M13.9947 18.3348C14.7634 17.8286 14.9763 16.795 14.4701 16.0262C13.9639 15.2574 12.9303 15.0445 12.1615 15.5507C11.3928 16.0569 11.1799 17.0905 11.6861 17.8593C12.1923 18.6281 13.2259 18.841 13.9947 18.3348Z" stroke="white" stroke-width="1.5" stroke-linecap="round" stroke-linejoin="round"/>
</svg>
