<svg width="21" height="21" viewBox="0 0 21 21" fill="none" xmlns="http://www.w3.org/2000/svg">
<g clip-path="url(#clip0_141_344)">
<path d="M6.3335 2.4668H14.6668C16.968 2.4668 18.8335 4.33228 18.8335 6.63346V14.9668C18.8335 17.268 16.968 19.1335 14.6668 19.1335H6.3335C4.03231 19.1335 2.16683 17.268 2.16683 14.9668V6.63346C2.16683 4.33228 4.03231 2.4668 6.3335 2.4668Z" stroke="#0C0C0C" stroke-width="2" stroke-linecap="round" stroke-linejoin="round"/>
<path d="M7.16675 10.2751C7.06391 10.9686 7.18237 11.6769 7.50528 12.2992C7.8282 12.9216 8.33913 13.4262 8.96539 13.7415C9.59166 14.0567 10.3014 14.1664 10.9936 14.055C11.6858 13.9436 12.3253 13.6168 12.821 13.121C13.3168 12.6253 13.6436 11.9858 13.755 11.2936C13.8664 10.6013 13.7567 9.89163 13.4415 9.26537C13.1263 8.6391 12.6216 8.12817 11.9993 7.80526C11.3769 7.48234 10.6686 7.36388 9.97508 7.46672C9.26765 7.57163 8.61271 7.90128 8.107 8.40698C7.6013 8.91268 7.27165 9.56762 7.16675 10.2751Z" stroke="#0C0C0C" stroke-width="2" stroke-linecap="round" stroke-linejoin="round"/>
<path d="M5.9165 6.2168H5.90817" stroke="#0C0C0C" stroke-width="2" stroke-linecap="round" stroke-linejoin="round"/>
</g>
<defs>
<clipPath id="clip0_141_344">
<rect width="20" height="20" fill="white" transform="matrix(-1 0 0 1 20.5 0.800293)"/>
</clipPath>
</defs>
</svg>
